<mxfile host="app.diagrams.net" modified="2024-06-29T08:37:26.197Z" agent="Mozilla/5.0 (Windows NT 10.0; Win64; x64) AppleWebKit/537.36 (KHTML, like Gecko) Chrome/124.0.0.0 YaBrowser/24.6.0.0 Safari/537.36" etag="SECsaGZF2_KH5vjE2knI" version="24.2.2" type="device">
  <diagram name="Страница — 1" id="03QM6S0Obs98npJGhOze">
    <mxGraphModel dx="1553" dy="709" grid="1" gridSize="10" guides="1" tooltips="1" connect="1" arrows="1" fold="1" page="1" pageScale="1" pageWidth="827" pageHeight="1169" math="0" shadow="0">
      <root>
        <mxCell id="0" />
        <mxCell id="1" parent="0" />
        <mxCell id="d64eNnrIxNj_LyoEu5gi-1" value="интернет-магазин" style="swimlane;whiteSpace=wrap;html=1;" vertex="1" parent="1">
          <mxGeometry x="160" y="140" width="370" height="360" as="geometry" />
        </mxCell>
        <mxCell id="d64eNnrIxNj_LyoEu5gi-9" value="регистрация" style="ellipse;whiteSpace=wrap;html=1;" vertex="1" parent="d64eNnrIxNj_LyoEu5gi-1">
          <mxGeometry x="30" y="50" width="100" height="40" as="geometry" />
        </mxCell>
        <mxCell id="d64eNnrIxNj_LyoEu5gi-10" value="просмотр профиля" style="ellipse;whiteSpace=wrap;html=1;" vertex="1" parent="d64eNnrIxNj_LyoEu5gi-1">
          <mxGeometry x="110" y="220" width="100" height="40" as="geometry" />
        </mxCell>
        <mxCell id="d64eNnrIxNj_LyoEu5gi-11" value="просмотр истории товаров" style="ellipse;whiteSpace=wrap;html=1;" vertex="1" parent="d64eNnrIxNj_LyoEu5gi-1">
          <mxGeometry x="40" y="290" width="100" height="40" as="geometry" />
        </mxCell>
        <mxCell id="d64eNnrIxNj_LyoEu5gi-12" value="контактная информация" style="ellipse;whiteSpace=wrap;html=1;" vertex="1" parent="d64eNnrIxNj_LyoEu5gi-1">
          <mxGeometry x="20" y="170" width="100" height="40" as="geometry" />
        </mxCell>
        <mxCell id="d64eNnrIxNj_LyoEu5gi-8" value="авторизация" style="ellipse;whiteSpace=wrap;html=1;" vertex="1" parent="d64eNnrIxNj_LyoEu5gi-1">
          <mxGeometry x="100" y="110" width="100" height="40" as="geometry" />
        </mxCell>
        <mxCell id="d64eNnrIxNj_LyoEu5gi-21" value="БД" style="ellipse;whiteSpace=wrap;html=1;" vertex="1" parent="d64eNnrIxNj_LyoEu5gi-1">
          <mxGeometry x="240" y="260" width="100" height="40" as="geometry" />
        </mxCell>
        <mxCell id="d64eNnrIxNj_LyoEu5gi-22" value="взаимодействие с пользователем" style="ellipse;whiteSpace=wrap;html=1;" vertex="1" parent="d64eNnrIxNj_LyoEu5gi-1">
          <mxGeometry x="240" y="150" width="100" height="40" as="geometry" />
        </mxCell>
        <mxCell id="d64eNnrIxNj_LyoEu5gi-16" style="edgeStyle=orthogonalEdgeStyle;rounded=0;orthogonalLoop=1;jettySize=auto;html=1;exitX=0.5;exitY=0.5;exitDx=0;exitDy=0;exitPerimeter=0;" edge="1" parent="1" source="d64eNnrIxNj_LyoEu5gi-2" target="d64eNnrIxNj_LyoEu5gi-8">
          <mxGeometry relative="1" as="geometry" />
        </mxCell>
        <mxCell id="d64eNnrIxNj_LyoEu5gi-18" style="edgeStyle=orthogonalEdgeStyle;rounded=0;orthogonalLoop=1;jettySize=auto;html=1;exitX=0.5;exitY=0.5;exitDx=0;exitDy=0;exitPerimeter=0;entryX=0;entryY=1;entryDx=0;entryDy=0;" edge="1" parent="1" source="d64eNnrIxNj_LyoEu5gi-2" target="d64eNnrIxNj_LyoEu5gi-9">
          <mxGeometry relative="1" as="geometry" />
        </mxCell>
        <mxCell id="d64eNnrIxNj_LyoEu5gi-19" style="edgeStyle=orthogonalEdgeStyle;rounded=0;orthogonalLoop=1;jettySize=auto;html=1;exitX=0.5;exitY=0.5;exitDx=0;exitDy=0;exitPerimeter=0;entryX=0;entryY=0.5;entryDx=0;entryDy=0;" edge="1" parent="1" source="d64eNnrIxNj_LyoEu5gi-2" target="d64eNnrIxNj_LyoEu5gi-10">
          <mxGeometry relative="1" as="geometry">
            <Array as="points">
              <mxPoint x="150" y="250" />
              <mxPoint x="150" y="380" />
            </Array>
          </mxGeometry>
        </mxCell>
        <mxCell id="d64eNnrIxNj_LyoEu5gi-20" style="edgeStyle=orthogonalEdgeStyle;rounded=0;orthogonalLoop=1;jettySize=auto;html=1;exitX=0.5;exitY=0.5;exitDx=0;exitDy=0;exitPerimeter=0;entryX=0;entryY=0.5;entryDx=0;entryDy=0;" edge="1" parent="1" source="d64eNnrIxNj_LyoEu5gi-2" target="d64eNnrIxNj_LyoEu5gi-11">
          <mxGeometry relative="1" as="geometry">
            <Array as="points">
              <mxPoint x="150" y="250" />
              <mxPoint x="150" y="450" />
            </Array>
          </mxGeometry>
        </mxCell>
        <mxCell id="d64eNnrIxNj_LyoEu5gi-2" value="гость" style="shape=umlActor;verticalLabelPosition=bottom;verticalAlign=top;html=1;outlineConnect=0;" vertex="1" parent="1">
          <mxGeometry x="90" y="220" width="30" height="60" as="geometry" />
        </mxCell>
        <mxCell id="d64eNnrIxNj_LyoEu5gi-15" style="edgeStyle=orthogonalEdgeStyle;rounded=0;orthogonalLoop=1;jettySize=auto;html=1;exitX=0.5;exitY=0.5;exitDx=0;exitDy=0;exitPerimeter=0;entryX=1;entryY=0;entryDx=0;entryDy=0;" edge="1" parent="1" source="d64eNnrIxNj_LyoEu5gi-14" target="d64eNnrIxNj_LyoEu5gi-8">
          <mxGeometry relative="1" as="geometry" />
        </mxCell>
        <mxCell id="d64eNnrIxNj_LyoEu5gi-24" style="edgeStyle=orthogonalEdgeStyle;rounded=0;orthogonalLoop=1;jettySize=auto;html=1;exitX=0.5;exitY=0.5;exitDx=0;exitDy=0;exitPerimeter=0;entryX=1;entryY=0.5;entryDx=0;entryDy=0;" edge="1" parent="1" source="d64eNnrIxNj_LyoEu5gi-14" target="d64eNnrIxNj_LyoEu5gi-21">
          <mxGeometry relative="1" as="geometry">
            <Array as="points">
              <mxPoint x="560" y="230" />
              <mxPoint x="560" y="420" />
            </Array>
          </mxGeometry>
        </mxCell>
        <mxCell id="d64eNnrIxNj_LyoEu5gi-14" value="админ" style="shape=umlActor;verticalLabelPosition=bottom;verticalAlign=top;html=1;outlineConnect=0;" vertex="1" parent="1">
          <mxGeometry x="570" y="200" width="30" height="60" as="geometry" />
        </mxCell>
        <mxCell id="d64eNnrIxNj_LyoEu5gi-17" style="edgeStyle=orthogonalEdgeStyle;rounded=0;orthogonalLoop=1;jettySize=auto;html=1;exitX=0.5;exitY=0.5;exitDx=0;exitDy=0;exitPerimeter=0;entryX=0.01;entryY=0.175;entryDx=0;entryDy=0;entryPerimeter=0;" edge="1" parent="1" source="d64eNnrIxNj_LyoEu5gi-2" target="d64eNnrIxNj_LyoEu5gi-12">
          <mxGeometry relative="1" as="geometry" />
        </mxCell>
        <mxCell id="d64eNnrIxNj_LyoEu5gi-23" style="edgeStyle=orthogonalEdgeStyle;rounded=0;orthogonalLoop=1;jettySize=auto;html=1;exitX=0.5;exitY=0.5;exitDx=0;exitDy=0;exitPerimeter=0;entryX=0.98;entryY=0.175;entryDx=0;entryDy=0;entryPerimeter=0;" edge="1" parent="1" source="d64eNnrIxNj_LyoEu5gi-14" target="d64eNnrIxNj_LyoEu5gi-22">
          <mxGeometry relative="1" as="geometry" />
        </mxCell>
      </root>
    </mxGraphModel>
  </diagram>
</mxfile>
